<?xml version="1.0" encoding="UTF-8"?> <svg xmlns="http://www.w3.org/2000/svg" id="Слой_1" data-name="Слой 1" width="1500" height="1500" viewBox="0 0 1500 1500"> <defs> <style> .cls-1 { fill: #347650; } .cls-2 { fill: #1d1d1b; } </style> </defs> <g> <g> <path class="cls-1" d="M1157.96593,776.55823c.026.13774.04628.23862.0644.3339.46476.45473.75751,1.04954,1.21009,1.45155Z"></path> <path class="cls-1" d="M393.18154,973.176l.90141,5.39083,3.89413,21.2393a110.59739,110.59739,0,0,0,4.36543,17.23851q2.16214,7.48983,4.35894,15.10077c3.35733,10.0283,5.99492,20.47848,8.6023,31.50256-.65474,28.66024,15.21792,66.8316,39.52006,98.23936,24.03314,31.85366,55.32978,56.67279,78.93221,71.96064,35.29787,18.97047,63.41317,49.12469,98.09525,75.89079,33.90732,26.73742,74.57082,49.421,117.22278,46.90114,2.20321,2.414,9.79169-.315,10.01635-1.83294,24.09652,5.26026,48.65533,9.33445,73.65771,10.5616a281.35887,281.35887,0,0,0,52.56736-2.23063c29.73324-3.5582,66.02988-14.05858,90.46614-29.17329,12.32378-7.27456,21.59573-15.61859,26.42189-23.32108,4.93432-7.6346,5.19305-14.5761.08172-20.5439-3.20031-4.062-9.01784-7.21621-16.8965-10.22305,3.3639-1.43763,6.76688-2.742,10.09621-4.29883a221.2804,221.2804,0,0,0,37.29215-29.614c-7.99506,22.30448-15.95021,38.27843-18.29781,50.34869-4.22039,17.97384,2.22084,25.12431,11.67148,28.44547,10.713,1.91011,26.81173-2.75517,40.27207-8.33546a195.05263,195.05263,0,0,0,22.79818-13.97809c41.57739-27.72754,60.81272-63.74348,71.29671-99.892,9.51854-36.82566,11.198-75.30206,12.41308-123.73788,5.56915-41.99663,10.22314-68.28362,12.60778-94.66225,2.52621-26.44194,2.50572-53.22636-6.60909-93.06879-.97607-9.71846-2.49217-19.34312-4.26848-28.95279l-1.35774-7.23169-.34993-1.8081c-.14279-.79472.01849.40573-.05437.05511l-.15768-.1435c-.04463-.28157.09914,1.13881.08549,1.28426l-.12627-.9965-.25815-1.99082-.52966-3.98191-1.10053-7.95032c-2.95719-21.16734-7.691-42.2873-12.78183-62.475-8.17843-8.32695-11.67623-21.491-15.05595-35.262-3.76508-13.74492-7.91861-28.20744-17.55906-37.42757l3.59721-11.49973c-7.00333-6.39651-13.111-14.22565-13.29126-23.72316l2.197-.47708c-10.965-8.93166-14.92734-23.22855-21.139-27.2525l2.148-.69366c-3.16244-4.33149-6.09826-8.702-9.48548-12.92027l4.17313.52739c-18.30528-15.855-33.98324-33.59163-48.667-50.4963l-4.75816,7.95622c-13.8684-19.02373-29.069-26.77013-43.42445-32.59427-7.25542-2.961-14.28923-5.83318-21.97826-8.9705a236.96181,236.96181,0,0,1-25.01719-13.611l1.19672-1.922c-29.38307,3.96916-48.04171-2.43107-69.29848-6.74835-20.5378-4.18581-43.868-6.70557-66.281,10.53981,5.63094-4.15822-3.7613-3.93-3.807-6.16479-22.7534,8.19876-44.98524,18.89224-38.41729,35.34767-14.6044,5.973-14.00011.14652-18.79723-5.29232,3.22489,7.05213-7.9685,15.59463-18.24007,21.97559l3.54467-5.30668c-10.08453,6.123-19.54049,12.85247-28.80537,19.70759l13.46061,8.97765c-17.29182,5.78714-13.70585-12.98529-26.031-.244l7.0421,9.93453c-21.40324,11.67943-43.85756,6.27378-68.53563,15.59212-5.17067,3.84175-9.80153,8.1535-14.53765,12.45531l-7.71717,7.21733c-3.19311,3.20617-7.335,6.48288-9.94951,10.818l-4.5927,6.39744-2.36408,3.48069-4.19257,6.40018-8.96723,13.15628c-12.19578,17.81756-25.31054,36.67843-39.14694,55.58224-27.88877,38.09657-57.68314,75.49369-92.32052,109.98758L442.991,851.04039c-12.77989-5.43857,3.08507,33.26175-9.22126,30.34793-.09821,4.26108-.10622,8.53572.09921,12.92631-3.52,1.78071-8.825,6.853-9.0003.33331-5.11,9.4834-3.39633,10.60774-2.80462,19.27315l-12.03447,7.57336a97.02405,97.02405,0,0,0-7.13107,14.40684l-1.30919,3.7391-1.76615,5.562-3.43193,11.64285-2.92843,10.93565-.68015,2.68749Z"></path> </g> <g> <path class="cls-2" d="M467.18538,623.3069l-1.722,5.51549c-5.39493-36.66757-73.1289,10.66586-37.47559,31.19974C442.75416,664.139,486.96143,651.84194,467.18538,623.3069Z"></path> <path class="cls-2" d="M438.03959,333.856c-19.58854-.00295-61.00757,25.34883-39.74476,50.54581h0C427.86689,461.84308,493.09712,345.7954,438.03959,333.856Z"></path> <path class="cls-2" d="M475.41469,1055.92066c-2.466,22.66212,52.71241,14.5365,37.38838-10.37856l-.43548,3.09236C505.6465,1021.33576,466.76355,1015.79651,475.41469,1055.92066Z"></path> <path class="cls-2" d="M294.94145,869.537c1.13242-14.18527-33.15295-8.12552-23.14407,7.14659l.21628-1.93743C276.69709,891.65989,301.05919,894.41914,294.94145,869.537Z"></path> </g> <g> <path class="cls-2" d="M473.98842,841.368a1.19882,1.19882,0,0,0-.39428-.30179C473.88473,841.3723,473.99119,841.44046,473.98842,841.368Z"></path> <path class="cls-2" d="M628.42476,967.86092l-2.27206-.6397C627.63068,967.675,628.20113,967.827,628.42476,967.86092Z"></path> <path class="cls-2" d="M435.8109,728.00813l.06515.27963c-.20761-1.87454-.4304-4.429-.60586-8.54467C435.37689,722.48566,435.52236,725.24413,435.8109,728.00813Z"></path> <path class="cls-2" d="M1043.16924,877.33567l-2.53231.99568C1041.77845,877.88264,1042.515,877.5929,1043.16924,877.33567Z"></path> <path class="cls-2" d="M799.165,946.77683c.72267-.36633,1.98136-.88416,3.19091-1.42776A29.46861,29.46861,0,0,0,799.165,946.77683Z"></path> <path class="cls-2" d="M444.46407,665.43146l-1.22063,3.14335A19.27756,19.27756,0,0,0,444.46407,665.43146Z"></path> <path class="cls-2" d="M486.09671,550.48563l-.14945.28709C485.9062,550.95312,485.98436,550.77224,486.09671,550.48563Z"></path> <path class="cls-2" d="M468.40128,594.9255l-1.09876,3.25486A30.25573,30.25573,0,0,0,468.40128,594.9255Z"></path> <path class="cls-2" d="M466.78529,599.7312c.16787-.50338.343-1.02843.51723-1.55084A11.86311,11.86311,0,0,0,466.78529,599.7312Z"></path> <path class="cls-2" d="M509.83594,510.75487c-2.26954,2.57566-4.203,4.96706-6.19252,7.41315Z"></path> <path class="cls-2" d="M1202.98583,582.35116l.12766.75723C1203.04677,582.39042,1203.01,582.26975,1202.98583,582.35116Z"></path> <path class="cls-2" d="M508.34363,515.24047l-1.68729,1.83119C507.27858,516.39632,507.82266,515.80575,508.34363,515.24047Z"></path> <path class="cls-2" d="M439.63357,728.66132c.61164,3.52919,1.0424,10.766,1.246,10.68463C440.487,735.63805,440.11647,730.31115,439.63357,728.66132Z"></path> <path class="cls-2" d="M1184.77667,502.85231l-.77-2.19174C1184.37336,501.70441,1184.6038,502.36025,1184.77667,502.85231Z"></path> <path class="cls-2" d="M508.34363,515.24047l1.95522-2.12358c-.19436.172-.43052.381-.65692.58142C509.2296,514.188,508.794,514.70554,508.34363,515.24047Z"></path> <path class="cls-2" d="M1065.51454,231.11906l.13379.0395c.31528.08454.55528.14908.88248.23675Z"></path> <path class="cls-2" d="M1044.90806,225.12452c1.42439.38175,2.80122.75049,4.33122,1.16018C1046.94422,225.63127,1045.74671,225.31768,1044.90806,225.12452Z"></path> <path class="cls-2" d="M503.64342,518.168l-3.558,4.24788C501.363,520.89059,502.516,519.51413,503.64342,518.168Z"></path> <path class="cls-2" d="M837.751,134.4131c.78734.05925,1.537.06816,2.25869.15752C839.03428,134.44778,838.28933,134.44152,837.751,134.4131Z"></path> <path class="cls-2" d="M783.56861,952.13311c-.504.15391-1.19582.36513-1.78892.54625C781.603,952.78967,781.7261,952.78293,783.56861,952.13311Z"></path> <path class="cls-2" d="M933.72046,897.02716l.06-.01036-.00072-.00433Z"></path> <path class="cls-2" d="M925.33247,898.76875c2.64755-.43787,6.39628-1.2505,8.388-1.74159C931.06159,897.47658,928.5748,897.96,925.33247,898.76875Z"></path> <path class="cls-2" d="M951.81691,894.10564c-.33382.04841-.59562.08622-.99146.14354C951.18625,894.19692,951.4843,894.15381,951.81691,894.10564Z"></path> <path class="cls-2" d="M787.81614,944.529s-.01867.02288.00722.02119l.08623-.05009Z"></path> <path class="cls-2" d="M819.13506,931.39031c.60056-.18112,1.40777-.42462,2.28832-.69027C820.85726,930.8419,820.09822,931.06685,819.13506,931.39031Z"></path> <path class="cls-2" d="M1033.46512,873.647c-.03456.014-.03216.02071-.03216.02071l.16535-.06069C1033.54159,873.62392,1033.50546,873.63476,1033.46512,873.647Z"></path> <path class="cls-2" d="M1213.64126,655.882c.49284,1.92271,1.06643,4.11156,1.78332,6.21612q1.06594,2.995,2.16344,6.07931c.72376,1.99521,1.4321,3.97236,2.03507,5.93288.3.97954.58322,1.95716.81522,2.92273a17.649,17.649,0,0,1,.442,2.62455,53.51409,53.51409,0,0,1,.05636,6.21395c-.03035,1.14067-.05792,2.342-.03878,3.594.01006,1.2334.11706,2.65562.19287,3.66792a110.85753,110.85753,0,0,1,.2058,13.26317,65.6796,65.6796,0,0,1-1.77134,12.78581c-.9814,3.84856-2.809,8.2636-4.251,12.39491-1.522,4.1489-3.06116,8.17159-4.68762,11.9963-.81275,1.91163-1.64754,3.77582-2.50768,5.57522a29.85211,29.85211,0,0,1-2.76931,4.553,65.32419,65.32419,0,0,1-7.46053,9.21736c-3.23029,3.46272-6.59,7.3987-9.91908,11.18681l-1.14519.42751-5.50651,6.46612c-2.42573,2.46728,4.25872-4.94828.03649-.52722l-1.86515,2.631c-.35291.19-3.88011,4.29943-6.29422,6.5733-2.51364,2.33048-3.677,3.44008.94889-1.47039-7.173,7.543-16.09751,13.572-24.89651,20.77411-5.68842,4.84423-3.02581,3.24691-9.12837,8.47072-1.32323.95281,2.06674-1.98894,1.44378-1.71269-9.01408,7.97289-14.04847,11.46017-19.79758,14.95853-5.60544,3.49667-11.51231,6.42759-21.58722,11.89345l1.62767-.98893c-1.63706.99134-4.0204,2.36419-6.03849,3.46633-1.0064.553-1.91091,1.04987-2.56964,1.41186a11.67268,11.67268,0,0,0-1.07962.6202c2.80905-.83792,3.4178-2.12335,9.5383-5.13952-.27421.7317-7.32656,4.32448-6.77393,4.42419-4.70984,2.298-7.32716,3.94875-11.41284,6.01429-7.10149,3.21391-17.1988,8.076-22.75691,10.05456-3.4402,1.65994-7.17339,3.81074-14.79764,6.923-5.611,1.84372,1.164-.836-6.34847,1.99256l-1.0925.72737c-6.081,2.26424-5.19491,1.73919-5.00139,1.57131-6.58522,2.21535-5.34339,2.27026-13.81171,4.52824l4.61687-1.61755c-6.18662,1.91813-8.74734,2.56506-17.56754,4.69057a59.36129,59.36129,0,0,1,6.28633-1.66163c-4.86363.80468-8.14293,2.18765-10.75845,2.751.77566-.04384,6.90833-1.45739,3.97681-.47087-4.39059,1.0005-9.28239,2.55519-12.51172,2.95356l4.76017-1.36828c-9.163,2.33433-4.8429,1.44246-15.45443,3.82206.56732-.15847.2724-.15944.49314-.27288a234.61,234.61,0,0,1-25.20155,5.67565l1.862-.43136c-3.96983.85984-6.13773,1.47858-8.306,1.83938,5.69853-.8372,4.16311-.49278,4.725-.31359-7.57151.89765-11.37672,2.48076-23.75067,4.29268a29.57922,29.57922,0,0,1,6.53067-1.28662,95.484,95.484,0,0,1,12.0311-3.1313c-4.6159.91017-10.1079,1.86972-8.979,1.48412l-1.38754.67823c-2.83216.46677-5.06774.83528-7.206,1.18764-1.16487.48,5.80246-.51662-.73327.778-7.37521,1.42391-4.0098.24518-5.13012.639-10.14669,2.08528-4.13457,1.18378-13.9325,3.1089.96726-.25578,2.84927-.75362,3.70344-.875-7.06367,1.19269-17.10522,4.22428-19.26843,4.415a16.90491,16.90491,0,0,1,3.78365-1.37141l-.08647.10983c7.54165-2.51184-6.35171,1.90922-4.08663.83093.58237.05588-9.04215,3.19874-13.26113,4.72911l1.45835-.17654c-13.771,5.95239.5212-.79409-13.32845,4.14793-8.82754,3.12215,3.4007-1.01446-1.98846.99062-3.03436.95907-5.105,1.53807-7.51021,2.16453-1.19763.29263-2.47812.60574-4.00367.97857-.75783.15752-1.57637.32756-2.4763.5147a25.432,25.432,0,0,0-3.44453.86586c-3.01522.74182-7.80959,3.2934-8.254,3.03039-4.39047,2.41573-15.742,5.3281-18.66679,6.648,4.68877-1.28662,6.93145-2.06578,9.35947-2.93236,2.35046-.92727,5.19684-1.65753,9.89572-3.68959-.84864.559-1.67813,1.08359-2.52388,1.56673-6.92422,2.73077-16.6446,5.52849-21.86288,7.21012,1.07709-.28638,1.57228-.355.9321-.06046a91.37277,91.37277,0,0,0-12.01774,4.99645,105.83787,105.83787,0,0,1-11.1302,5.38952c-1.40573.23507,4.3606-2.04964,8.31658-4.21489-6.23358,2.77027-6.31246,3.24547-16.39111,6.837-.60754-.04528,6.775-2.44536,7.76022-3.23728-3.5994,1.52483-7.30007,2.88612-11.05108,4.1949.03962-.03131-.0118-.03468-.01879-.05516-1.46533,1.04289-8.665,2.77244-15.644,5.40036-8.358,3.04845-12.77112,5.36014-16.44241,6.98251-3.64757,1.6768-6.38893,3.02533-10.83685,4.7096-2.46727.672-3.22258.73652-2.23256.32081,4.06424-1.065,3.29688-1.03277,4.64541-1.61731-5.447,2.041-12.17357,3.094-9.13018,2.125-8.85355,2.302,3.29027-.52578-2.108.9345-4.2173.96388-8.37415,2.10961-12.47957,3.2563,1.52471-.17389,5.88049-1.342-.4569.633-5.34785,1.55469-7.92495,2.32252-14.92986,3.93791.98484-.35718-2.28363.1598,2.96126-1.06529-3.36372.71533-8.49673,1.80675-10.6715,2.26918,3.85193-.52.7193.12693-2.67754.56359-3.3807.4121-7.14424.55781-4.19441.64512-2.61649.09923-5.23791.00566-7.85307-.05118,1.79049-.00626,1.99088-.17016,4.6288-.13765-2.22775-.32262-6.41049.13139-9.16739.022-2.76894-.148-9.93185-.878-10.50363-1.12164a66.24979,66.24979,0,0,1-9.588-1.58227c-3.66623-.57973-.339.19557-1.42138.12091-4.13541-.79-8.26251-1.63972-12.35553-2.66165-.60791-.3579-1.49556-1.15753.37187-.78758-4.6896-.942-1.811.21075-8.79732-1.66018,4.09615.75795-9.113-2.91-3.20078-1.7098-4.03582-1.33335-15.146-5.00416-21.31314-7.042-3.89179-1.02651,6.52465,2.48991,6.08028,2.63081-8.73975-2.81145-13.112-4.48247-17.07211-6.05908a86.21845,86.21845,0,0,1-13.02016-6.43337l2.97969,1.79c-7.35486-3.98174-6.47961-3.62071-10.76037-5.98779,2.19668.87622-7.56525-5.82835-18.00842-14.65289-1.04217-.567,5.66252,5.17613,3.74667,3.99668-2.39827-1.87406-4.71827-3.84277-7.011-5.84087-.475-.45954.32395.15294,1.24243.88874-6.24719-5.35676-11.10431-10.62514-13.19537-11.852l-5.84606-6.03139,2.29989,2.40032c-.99351-.61007-7.89413-6.76622-9.36344-7.99866a162.52134,162.52134,0,0,1-13.06194-12.41465c1.06961,1.24784,3.77124,4.34446-1.63731-.731.475-.38271-10.99629-10.99966-10.53144-11.14682-2.11841-2.11828-5.65446-6.07112-6.06836-6.15855l.63789.0867c-.88729-.11512-8.39907-8.022-13.79991-14.37374,1.77892.97184-5.94372-6.97407-7.58271-10.37609-1.43439-.87477-8.97663-11.72125-10.0383-12.77425-3.55905-5.33894-2.80832-5.05594-3.52293-6.51863l-1.71979-2.42922c-1.52639-2.83313-7.27189-13.36843-10.2222-19.92029l-3.34168-5.80475-.88561-2.32542a20.57664,20.57664,0,0,1-1.32384-2.71872c-.33972-.9345-.54709-1.3861-.15715.14764a26.976,26.976,0,0,1-.82335-3.25823c-.27686-.09128-.54492-1.271-.85273-3.37842a36.75019,36.75019,0,0,0-2.057-8.89727c-.6238-1.70739-.31515-1.32829.38151.25747-1.47016-3.59422-.60261-2.06216-1.23075-3.98632.44557,1.17993-1.05746-1.65754-2.08023-3.73463-1.00266-2.08144-1.76158-3.35626-.18618,1.18884.02758.70593-2.144-4.50343-2.89575-7.94977l-.086-2.18139c-.47929-1.32612-.93932-2.66886-1.365-4.02293a108.53227,108.53227,0,0,1-1.61744-12.27255c.61538,4.54822,2.1679,9.97652.65945-1.73726a116.49759,116.49759,0,0,0,2.18019,12.24c-.41415-2.38611-.572-3.58169.27372.08984-1.62887-8.99747-.86056-2.942-2.08817-11.96523.46508.44461.2683-2.07445-.36513-10.09189l.29925,6.00537a9.94342,9.94342,0,0,1-.22471-1.13152,13.71436,13.71436,0,0,1,.09333,3.40636c-.21087-1.78109-1.55915-10.55216-1.47557-12.117.14017,4.65252-.3555.6344-.93113-3.8146-.63043-4.38252-.87176-9.1964-.90777-6.26188a59.04838,59.04838,0,0,1-.31491-8.12823c.62729,7.70795.22062-5.82763.51361-4.615-.26795-2.88009.02529,6.12581-.33117,2.22547a41.87932,41.87932,0,0,1,.20232-10.25375l-.0548,1.83553a61.36548,61.36548,0,0,1,.96774-6.79176c-.05335-1.15873-1.31842,6.60486-.49519.25362.35971-1.62815,1.36466-8.17014,1.44571-7.97505-.19509,3.16357.53035,1.00555-.33539,6.51477.36935-2.20908,1.233-7.16941,1.43355-10.73665.28143-3.41117.53108-5.53909-.06407-2.6903.23507-1.78206.50964-3.55761.84214-5.32112-.829,3.27244-2.23209,12.70536-.87465,1.91741l.065.10838q.45123-3.75076,1.226-7.46131l1.07359-3.12143c-.11814.067.09285-1.11659,1.00411-3.76715.345-.657,1.31444-3.11372,1.40006-2.85143,3.09109-7.49336,2.72439-7.174,2.97548-8.16557,1.5907-4.41143,2.13369-6.0745,1.69559-3.91816,2.0954-6.09546,4.88024-16.7678,6.58257-20.659,2.729-7.8592-.70774,1.56313.75483-3.08313a177.75281,177.75281,0,0,0,7.37883-16.95783c2.807-7.332,5.61218-15.50333,7.96241-21.99715-1.87322,3.3064,1.23339-3.56893,1.61273-6.13254-.88958,2.8418,5.125-12.058.967-.71991l2.599-6.89026c2.12707-4.56268-4.17045,11.43223-.98978,4.5162,2.85577-7.76576,4.752-12.92189,8.12547-22.09518-.64536,3.2368,2.29639-7.16194,1.96089-4.69635-.509,1.95475-1.41139,4.50752-2.30735,7.15761l.64993-1.605c2.98968-8.60464,3.33181-9.76868,3.2439-10.06685-.06985-.26662-.65258.39765.95208-3.9962a35.00064,35.00064,0,0,1,3.79786-7.44349c.533-.679.45629-.24663.70268-.46533.86285-1.39525,3.85037-6.041,5.31052-8.67689-3.48426,5.97334-6.78416,10.35538-5.45479,7.65376a93.7394,93.7394,0,0,0,5.682-8.75565,35.6105,35.6105,0,0,0,3.63119-8.64294,43.03757,43.03757,0,0,1-3.91118,7.98951c-1.07564,1.71365-1.79386,2.85794-2.497,3.97813-1.33552,2.2628-3.02846,4.14914-6.50888,10.57143a98.82953,98.82953,0,0,1-3.52136,9.89367c1.68006-5.29751-.37777.26229-.94558,1.73654.78758-1.54024-1.87285,5.87941-2.7074,8.49143-1.05589,2.26256,1.29409-5.22694-1.95065,3.22909l-.073,1.817c-1.44487,3.25655.16089-1.54554-2.58566,5.4401,1.2269-3.87722-.8679.97713,2.84361-8.51769-5.11134,11.03193-6.73371,17.37546-9.77553,26.298.25722-.90752.3-1.0583.553-1.95065-.55649,1.94921-1.82276,5.37748-2.74823,8.00468-2.27448,5.79824,1.44017-4.719.72677-3.25919l-3.46633,9.471a.954.954,0,0,1-.128.22182,46.65169,46.65169,0,0,1-2.15694,5.71081c.87959-2.87022,1.10587-4.04894,1.66006-6.00007l-3.3648,10.05576c.25241-1.14308-3.53882,7.98758-.89344.94028-1.84829,4.889-3.93924,9.6456-5.91289,14.50814l-.86164,1.09129c-1.2122,3.57977-1.19149,3.69369.41836-.51807-2.20752,4.9702-6.302,22.94779-6.37256,19.96341-3.04279,11.8672-6.81559,15.34678-9.6368,30.08275,1.04517-5.64771.19063-2.47594-.54131.66451-.66909,3.14648-1.21124,6.24575-.29228.19027-1.47485,7.04176-.76554,8.64583-1.55084,14.12567-1.05709,5.146-.95665,2.74546-.33707-2.81194-.20327,2.17609-.51554,4.35916-.833,6.563l-.05877-.13608c-.25253,1.91765-.50434,3.85361-.667,5.80739a30.82552,30.82552,0,0,1-.62634,3.77606c-.07406.3555-.257.736-.16787,4.02462l.44365,1.37839.0277,4.27294c.09875-1.6113.3249,2.10961.55179,6.72817l-.08527-.0949c.11116,1.87.24242,3.74475.425,5.61977-.69642-5.55787.38572,5.154-.077,2.61444.50158,4.75247.51253,4.85555,1.41862,13.43972l.09429-1.53422c1.39139,11.21426-.35995.50025.662,9.6138l.21026-.60164a93.45988,93.45988,0,0,0,8.03888,31.1726c-2.30265-5.11952-1.99846-3.72692-1.90116-3.63829.77181,1.9533,1.97293,4.22452,2.7156,6.43505a53.51387,53.51387,0,0,1,1.54614,7.74721,30.92185,30.92185,0,0,0,2.19054,8.2029c1.17053,2.44753,2.30061,4.58773,3.32687,6.521,1.03975,3.01377,1.18077,3.76811,5.14385,11.80265,3.07338,5.73539,3.63023,6.52779,4.88988,8.26625,2.93814,5.60219,9.78842,15.2762,9.77662,15.65314,1.07058,1.03421,3.18874,4.69659,5.50332,7.30284l.34586.65583-.1026-.60381c6.28295,9.27637,12.02038,14.52788,19.20316,23.19394l-1.3578-1.39116,3.30339,3.404c.42245.6291-.95341-.71918-1.22581-.77121,4.99188,5.38784,10.13175,10.629,15.36605,15.76538l-2.93152-3.1879c3.30363,3.24113,5.74092,5.20165,9.44966,8.978-6.67048-5.75079,5.28451,5.04029,6.12556,6.21083l-3.52027-3.13636c4.718,4.38131,4.73091,4.36494,4.537,3.80327,6.2254,5.57064,3.84459,4.28113,9.76458,9.22122l-4.05581-3.68719c-1.08852-1.20762,1.99316,1.26495,4.702,3.72572.61538.61586,2.454,2.44994.35707.60045,4.95309,4.32038,12.21077,10.99363,14.43876,12.83662,2.58987,2.43814,1.58276,1.80735.09972.58118,10.70148,9.09525,4.56713,4.49644,15.83907,13.12661l-.28673-.01517,4.03726,2.74883c1.81975,1.44342,3.65527,2.87431,5.53764,4.24235l-1.95908-1.56746c3.88589,2.57638,6.38135,4.08555,11.02339,6.92422l-2.00545-.92053c5.69625,3.30929,9.03865,5.14939,12.35613,6.87484a91.16372,91.16372,0,0,0,12.57314,5.40927c.79541.336-1.07949-.25409-2.01989-.611,11.09154,3.66912,8.08343,3.3748,19.317,6.51212-.705-.137.47327.33743.02155.26735l5.11411,1.36682-.4829.19317,4.2875.71846L640.401,971.311l2.03158.371c5.3263,2.01423,13.26546,3.35059,20.87623,5.00753l-1.25062-.62092c9.74435,1.1886,20.954,2.39382,32.78691,1.86118,12.07253-.45642,23.92444-4.20694,35.0102-7.40051l-.31587.42125c3.07711-.98773,5.99213-1.8242,9.19544-2.71824,5.23405-1.078-3.04869,1.05974-1.40271.79384a48.60621,48.60621,0,0,0,7.397-2.35769c1.21016-.5224,2.67754-1.00844,8.35885-3.18694,5.87568-2.0388-1.90959,1.04048-4.68527,2.07927,5.40361-1.93572,11.87551-4.70165,17.89413-7.27635a160.472,160.472,0,0,1,15.48286-5.60508c.15571-.09778.60333-.30684.20581-.19436,7.04729-2.4851,16.65014-5.41818,24.31967-9.14174a22.71027,22.71027,0,0,1-3.94923,2.00581,74.52467,74.52467,0,0,0,8.7854-4.23223l-2.64527,1.6544a97.762,97.762,0,0,1,10.452-4.78258,52.2313,52.2313,0,0,1,7.59029-2.42922c-.74892.11513-.55419-.23,4.67359-1.82083a65.91863,65.91863,0,0,0,9.36537-2.86588,72.79751,72.79751,0,0,0,6.82427-2.76955c2.3053-1.12357,4.34182-2.29723,6.15976-2.96921-.66872.31214-6.44324,3.37866-4.838,2.54315,2.0895-.98484,3.79123-1.95427,5.40951-2.63347a26.17152,26.17152,0,0,1,5.17938-1.55565l-1.19173.43738c7.13809-1.48653,13.46645-3.90949,20.01025-6.17373,3.10107-.55107,18.17436-6.58655,16.97541-5.71154,6.85738-2.27387-5.82221,1.711,2.82939-1.23074,2.36239-.59755,7.84078-2.456,7.5738-2.02074l-.92788.28854c2.04386-.55757,4.08315-1.12959,6.15061-1.62165l-3.80942,1.29337c5.27295-1.46775,9.158-2.59493,9.3809-2.89937,5.12278-.95641,12.42634-2.42151,14.83329-2.54892l-1.90345.41884c14.49368-2.6773,24.3381-3.05014,35.79152-5.91963.8696-.13247.78072-.03276-1.02217.33285q4.54143-.89488,9.07261-1.93162l-2.10913.72038,14.68047-3.92177-.15391.20159c9.67293-2.25749,25.024-5.54174,37.56937-9.1928l-1.85552.60647c13.57556-4.21754,13.29882-3.86277,22.94972-7.74384-.32407.17414-.63886.31672-.98713.4646l8.61933-3.48583-1.83829.92583c6.25537-2.88347,18.30478-7.29321,14.291-5.86785,3.51968-1.69342,9.55709-4.6465,10.51423-5.32521,9.18147-4.33893,2.34083-.85792,8.07681-3.44875,6.60245-3.23728,7.66086-4.01546,16.52779-8.57887l-.10489.24061c4.14251-2.22763,6.52043-3.8459,12.11709-6.75659l-1.64225.94125c9.06178-5.08918,11.93513-5.397,18.9298-10.23231a79.40231,79.40231,0,0,0,7.04742-4.43141c2.22811-1.57011,3.84048-2.84325,3.7834-2.58024,5.21719-4.34688,9.355-8.45892,13.63361-12.19428,4.185-3.69923,8.85331-7.14821,13.95393-11.27856,1.965-.94149,2.25455-1.66115,8.52937-6.8274l-.63458.19485a130.15,130.15,0,0,0,10.20594-10.47654c3.29116-3.59253,6.66169-7.27176,10.07178-10.99387,3.44483-3.80087,6.74352-7.326,10.38994-11.07409,3.56255-3.78762,7.25576-7.93122,9.804-13.17791l.52162-.42318,1.44432-3.93165c2.28213-5.10676,4.41613-10.65452,6.512-16.28585,1.047-2.90755,2.09161-5.43215,3.14822-8.71784a62.26331,62.26331,0,0,0,2.076-9.4546,101.50331,101.50331,0,0,0,.8051-17.95688q-.10866-2.09793-.213-4.11252c-.09261-1.337-.125-2.27532-.11067-3.48463.02438-2.3023.18593-4.70238.14282-7.10053.045-7.09234-4.30346-15.32365-6.72474-23.4991l.29932.83046c-1.14886-3.41214-1.91723-7.38112-3.33073-11.54977a29.7881,29.7881,0,0,0-2.91622-6.2691q-1.65446-2.57013-3.32741-5.16963a23.28533,23.28533,0,0,1-2.2519-5.06,66.586,66.586,0,0,0-2.70728-6.10894,47.81722,47.81722,0,0,1-2.34318-5.42637,22.299,22.299,0,0,1-1.05878-5.42541c.2205.94847.13488-.578.4092,1.118-.8122-3.44007-.35784-9.71352-.9852-13.70779.11212,1.40874.21773,3.13275.217,4.59423-.156-1.31625-.32521-2.744-.49856-4.2067-.16908-1.348-.34243-2.72113-.44762-4.03256-.23044-2.61877-.31287-4.9596-.31509-6.18674l-.84437-7.60005a10.96187,10.96187,0,0,1,.04034-1.39019l-.22242-1.34612.1801-4.086c-.18118-1.88851-.61851-12.05964-1.0639-15.25092.1035-.74471-.02529-7.97288.21755-2.38755-.357-9.39632-.26976-18.86513-1.76339-28.63115.211,1.50219.35507,3.01738.48013,4.5345-.14921.57515-1.50411-8.07067-2.45872-12.45512,1.461,5.72454.52469.38969.153-2.12672-1.06161-3.7946.535,3.39335-.10261,1.40922-1.185-4.83243-4.27088-14.728-5.0059-17.20108l.99784,2.74931c-2.11707-6.28332-2.67344-9.325-4.86121-15.41927-2.17922-5.39916-3.40708-9.47339-3.46669-8.18917-2.8663-7.8332-.75037-3.1395-1.59822-5.7007-1.578-3.59759-4.83021-14.677-4.89825-16.16977-.962-2.06939-2.31512-7.44638-3.22342-12.51967-.94619-5.07087-1.45071-9.82551-1.8451-10.61743-.15914-2.22714-.25187-4.45333-.3095-6.6759-.13674-.20424-.70045-1.49207-.8956-6.92856.16306-5.09881.46165-3.91479.63573-5.50922l-.57684-3.53738c.11085-3.75534.24464-7.57476.73477-11.36117.30191-3.40636,2.05127-6.79922,3.27094-11.61022,1.80632-9.23928,1.58125-18.20977,1.1848-27.319-.60525-17.95447-3.00828-36.96627-9.62578-53.07053a75.34532,75.34532,0,0,0-5.76164-10.95727,105.61,105.61,0,0,0-7.91917-10.58611,171.03213,171.03213,0,0,0-18.81575-19.3042l1.53759,1.23749a121.51557,121.51557,0,0,0-13.96044-10.99267,112.69845,112.69845,0,0,1,10.21436,7.92327c-3.02388-2.41429-5.51392-4.1253-8.584-6.29946a111.95158,111.95158,0,0,0-13.42407-8.02346c-4.71983-2.54146-9.62608-5.18986-14.4207-8.11981l-3.55821-2.25918c-1.15524-.771-2.64659-1.72738-4.02859-2.46968-2.8477-1.55831-5.74622-2.70837-8.382-3.84374a38.70192,38.70192,0,0,1-3.65335-1.7269c-1.16174-.63537-2.35275-1.37767-3.63468-2.16477a33.92191,33.92191,0,0,0-8.88415-4.18647c-14.83424-3.50029-9.73073-3.073-23.4095-6.60895,1.16259.29432,1.6119.33575,2.66923.57491-1.82083-.51084-3.52088-1.014-5.11663-1.53615-1.66019-.53854-3.43887-1.07612-5.06-1.49472a94.64419,94.64419,0,0,0-9.40956-1.87574c-6.08-.94438-12.07482-1.383-19.52879-2.55832.97147-.177-1.62647-.60984-3.77955-1.11827-2.18573-.5424-4.66408-1.4268-3.95815-1.34491l-1.29939-.17679a46.17982,46.17982,0,0,0-7.07668-2.40634,29.88051,29.88051,0,0,0-3.29026-.57539c-.66571-.08358-.95955-.14572-.6556-.17438l-6.8404-.08213-.54288-.32948a56.749,56.749,0,0,1-7.77744-1.14091c-3.1213-.644-6.49611-1.34058-9.73928-2.0099-6.43193-1.32179-12.08217-2.9261-14.16408-3.90636a64.01475,64.01475,0,0,1-16.44145-7.069,112.79112,112.79112,0,0,1-16.86233-12.87925c-5.57858-4.97719-11.06613-10.46257-16.66627-15.77959-5.53524-5.29511-11.41622-10.60129-17.59609-14.64951-1.79277-1.04337-4.48548-2.61083-7.46288-4.344a95.55531,95.55531,0,0,1-8.16978-5.562,72.12626,72.12626,0,0,0-5.857-4.32592,33.63774,33.63774,0,0,0-10.44413-3.889,85.61761,85.61761,0,0,0-10.187-1.44824,2.4458,2.4458,0,0,1,.76868-.03516,64.71549,64.71549,0,0,0-20.15236,1.632c-7.46156,1.5034-14.40926,3.85819-12.33217,2.7905-.262.38922-4.05026,1.64694-7.68844,3.00943-3.59614,1.4097-7.13207,2.79556-7.13207,2.79556s-1.35708.63151-3.92226,1.82541c-2.51135,1.23-6.31523,3.03857-10.975,5.7532a160.55428,160.55428,0,0,0-35.13171,27.83393A132.194,132.194,0,0,0,721.9657,204.551c-5.58521,9.30022-10.58178,19.82371-15.53849,30.25593-2.54182,5.09183-5.5415,10.23134-8.53877,15.66157a158.19341,158.19341,0,0,0-8.32573,17.23288c-2.467,5.876-4.78631,11.74027-7.55067,17.27526-1.36792,2.81314-2.87444,5.30161-4.59327,8.29395q-2.38461,4.29413-4.78788,8.62222c-1.57889,2.84059-3.17032,5.62964-4.85916,8.31272l-2.68513,4.106c-.98243,1.52844-1.88417,3.07735-2.70042,4.61109-3.27545,6.13592-5.764,12.08854-9.42943,16.55392-9.15294,10.85756-14.41589,23.74067-21.28857,34.25983a78.22486,78.22486,0,0,1-5.5209,7.50106c-2.24028,2.67778-4.25764,5.44082-6.14314,8.166-3.77847,5.45768-7.16785,10.74532-11.116,15.14374q-6.333,7.19517-12.50257,14.20442c-4.10747,4.54919-8.28768,9.594-11.886,14.20587A77.2396,77.2396,0,0,1,572.984,441.16727c-4.26438,3.59928-8.89859,7.13111-12.93862,11.32168-1.00194,1.01518-2.0028,2.14911-2.883,3.14936-.79553.91138-1.6361,1.785-2.51894,2.63058-1.76423,1.69342-3.703,3.27388-5.6895,4.902-1.9875,1.63081-4.02293,3.30279-5.92842,5.16385-1.95113,1.87333-3.61963,3.91864-5.13458,5.63229q-4.67257,5.38374-8.948,10.30938-2.1272,2.4632-4.14733,4.80233c-1.38682,1.66621-2.63925,3.36878-3.77763,5.01909-4.49235,6.66651-7.69579,12.46018-11.1821,16.657-1.75725,2.43042-7.33078,8.9452-4.90288,6.72239-4.28462,4.97646-6.65688,6.90182-7.29225,8.037,6.071-6.54753-1.2989,2.54844,4.76139-3.744l-3.6725,4.23247c-.61345.9887,4.89373-5.84328,4.25042-4.57664l.65909-1.52652c3.07759-3.34253,4.80979-5.127,6.00272-6.20118,2.70163-3.33314,3.79268-5.66723,9.629-14.01343l-1.52856,2.36226c4.57978-6.92952,3.124-4.05038,4.16371-5.43985l-1.05023,1.52193c1.38694-1.89044,2.82-3.76329,4.357-5.5545-3.50956,4.10025-7.7955,11.74871-5.33569,7.87775,5.6824-8.12944-1.57866,2.04482,2.57879-4.13685,2.70235-3.77606,2.18428-2.53207,2.17717-2.27942,1.64381-2.23895,3.53882-4.25463,5.36074-6.31511-.00482.369-3.65973,4.07159-1.234,1.73582l6.75069-7.93339c.87935-.52289,2.71294-2.68356,4.77824-5.11013,2.038-2.42778,4.37265-5.172,6.39315-6.49864-5.32329,5.27608.59381-.35116-.11345.64885,4.4873-4.09639,9.70051-7.48324,13.77439-12.14972,1.28457-1.20474-3.20741,3.67032-1.29072,1.6096,2.528-2.45234,3.69537-4.28666,5.07689-5.56534,1.11057-1.13248,10.38658-8.87246,10.27687-8.22818,4.92672-3.83194,5.756-4.98586,6.512-5.91747.74363-.97111,1.48726-1.79073,5.32847-6.1588,1.24724-.96244-6.05764,7.00443-2.42537,3.29773,2.6673-3.03881,5.13891-6.21588,7.63581-9.34935a37.55939,37.55939,0,0,1-4.05339,5.54969c2.62936-3.12624,5.02836-6.11448,7.42314-8.831,2.38876-2.69175,4.81124-5.22887,7.07186-7.67351,4.57846-4.89168,8.81358-9.41654,12.985-13.87325,4.176-4.67491,7.565-9.74362,11.23846-14.80968,1.85021-2.55133,3.73656-5.02053,5.91963-7.58993a73.23048,73.23048,0,0,0,6.32438-8.91293c2.51111-3.47644-1.40283,2.73679-3.11552,5.3257,6.23864-9.21327,9.58-16.04356,13.36517-22.06724,1.84673-3.03087,3.70875-5.89338,5.82077-8.819,1.05649-1.46148,2.1691-2.94584,3.41731-4.42491a49.2444,49.2444,0,0,0,4.10386-5.45768l-.02084-.42607c3.79581-5.63735,6.352-11.97727,9.90295-17.355a200.47549,200.47549,0,0,0,11.059-18.49975c1.71076-3.15587,3.60192-6.15133,5.423-9.5955,1.76784-3.36156,3.3359-6.7932,4.80991-10.21328,2.95873-6.8262,5.55522-13.66516,8.79587-19.82516l-1.631,2.93814c1.40922-3.59181,4.406-9.16317,6.64736-13.35109.46244-.5843-1.226,3.27124,2.78436-4.13878-.92174,1.49689-2.73221,4.53667-2.32228,3.56387,1.58166-2.67272,3.39081-5.7426,5.26488-9.24554,1.91946-3.53521,3.68224-7.43121,5.66746-11.42211a238.797,238.797,0,0,1,14.24476-25.65809c11.1762-17.33981,28.75771-32.82725,45.76263-42.911,11.45414-6.7549,24.32184-12.6755,37.47664-15.99731a70.542,70.542,0,0,1,20.06107-2.07879,53.49686,53.49686,0,0,1,9.8502,1.43981,27.97874,27.97874,0,0,1,8.62775,3.74716c2.78749,1.75363,5.52958,3.90708,8.559,6.06558,1.51652,1.07155,3.08735,2.1455,4.77475,3.13034l4.465,2.69705a101.17187,101.17187,0,0,1,16.07788,12.64925c10.17571,9.44232,19.86442,19.73315,31.26365,28.02878-6.79476-5.19251-3.60457-3.37071,1.49677.54721a63.64846,63.64846,0,0,0,21.60312,11.35058c7.40435,2.31482,14.94395,3.67177,23.34651,5.75152a84.30188,84.30188,0,0,0,12.05712,1.87574c3.94526.35984,7.96229.25049,10.69655.98557,3.11324.75217,6.48852,2.33769,10.43534,3.533a104.51419,104.51419,0,0,0,11.39743,2.29c7.365,1.14163,14.4484,1.934,21.08432,3.633,1.66657.41138,3.28112.90536,4.89963,1.42849,1.79145.60044,3.58808,1.151,5.38591,1.66645,3.5953,1.02385,7.19313,1.90055,10.77073,2.73871l.47689.42149c4.18948,1.24568,5.38578,1.32974,9.72013,2.55735l-.12668.04649a24.5921,24.5921,0,0,1,6.60979,3.06218,59.56128,59.56128,0,0,0,7.85932,4.35627c5.29415,2.19848,9.1875,3.85361,11.46559,5.528l.47893-.07539c5.63483,3.5617,2.7799,2.12671,8.72531,5.38446l-.25.04384,7.01876,3.48993c-.47436.07851,3.61866,2.23967,8.27876,4.65661a75.71022,75.71022,0,0,1,11.19042,7.17181c6.62424,4.55738,18.21049,15.00814,25.78441,24.837.55323.9805,3.41526,4.476,6.03632,8.721a75.181,75.181,0,0,1,6.70842,14.32556,127.015,127.015,0,0,1,6.83511,31.84579c.87188,12.09938,2.01273,25.26381.44551,36.67942l.423-.3661a26.43169,26.43169,0,0,1-1.19155,5.57956c-.04986-.10766-.33743.65174-.09725-.22761-.44292,1.07492-.99658,2.4851-1.55547,4.25367a28.21172,28.21172,0,0,0-1.23852,6.06029c-.395,3.95862-.39541,7.83753-.55961,10.452.39264-3.29941.11687-4.5964.41787-8.44158.8133-5.55836.29637-.11657.01048,7.14123l-.07767-.146.14107,4.90541c-.28938.53108-.461,4.90565-.73056,5.54246a135.53384,135.53384,0,0,0,3.4408,29.011,270.3527,270.3527,0,0,0,8.19176,28.2258c-1.07305-1.994,5.32894,14.81016,3.338,10.84359,4.588,12.22679-.29673-2.17465,2.07752,3.309,1.21834,3.435,2.60444,6.98636,2.62232,7.6711-.675-1.56843.62688,2.89454-.36741.12548q1.41828,4.09,2.72035,8.18821c.20123.7948-.42836-.98918-.76079-1.88394a125.01409,125.01409,0,0,1,5.64018,23.11879,109.72989,109.72989,0,0,1,.98262,10.96474c.18647,3.78521.37458,7.60318.57021,11.57409.24778,1.17366-.17064-6.31054.06985-5.15975.9976,16.00069.02631,14.16131.94823,29.22484l-.41523-3.114c.41637,4.87169.70786,6.98444,1.07841,15.04162-.22995,1.43571-.79469-6.82114-1.09551-10.68077.15047,5.51259,1.50929,19.53276,1.43824,15.23189.34815,3.32374.58418,5.57738.78271,7.47288.14276,1.666.12482,3.01256.15848,4.732.135.03251-.17306-5.70672.25048-2.18669.07545,2.2298.16107,4.75873.25283,7.46975a32.48315,32.48315,0,0,0,1.80928,9.55769c1.16409,3.17778,2.66814,5.92565,3.80363,8.44736a36.99363,36.99363,0,0,1,1.46961,3.73993,28.34691,28.34691,0,0,0,2.0131,4.481c-.12621-.06214.19707.77626-.37248-.17317,2.74462,4.2686,3.72542,5.47309,4.58869,7.39749C1211.474,647.98663,1212.1696,650.10106,1213.64126,655.882Z"></path> <path class="cls-2" d="M783.64376,945.87653l4.17238-1.34756c-.02626-.07153.14643-.20472,2.01772-.94293Z"></path> <path class="cls-2" d="M983.46243,887.022c.52794-.15583,1.04529-.30853,1.52145-.44919A8.8798,8.8798,0,0,0,983.46243,887.022Z"></path> <path class="cls-2" d="M1032.10636,873.8679c-3.34506,1.21341-.31094.28734,1.35876-.22086C1033.51847,873.55913,1033.41659,873.5112,1032.10636,873.8679Z"></path> <path class="cls-2" d="M670.73094,972.357c.75928.04769,1.22208.05238,1.10334-.02842C670.81777,972.2821,670.59426,972.30305,670.73094,972.357Z"></path> <path class="cls-2" d="M444.39254,764.201c.08177.39524.15643.75652.25651,1.24087C444.59931,765.20153,444.50972,764.768,444.39254,764.201Z"></path> <path class="cls-2" d="M449.89177,781.15067a33.93693,33.93693,0,0,1,1.1114,3.79822A21.06658,21.06658,0,0,0,449.89177,781.15067Z"></path> <path class="cls-2" d="M747.313,960.34613c1.12549-.40463,2.21884-.83383,3.14852-1.24978C748.73074,959.74665,747.88077,960.093,747.313,960.34613Z"></path> <path class="cls-2" d="M451.73548,788.7565c.216,1.51664.41342,2.99233.6845,4.41239.02589.019.05226.0672.078.06214C452.19828,791.79484,451.97633,790.29674,451.73548,788.7565Z"></path> <path class="cls-2" d="M443.27006,758.6947c.30479,1.71751.79107,4.035,1.12248,5.50633C443.945,762.00568,443.59858,760.30647,443.27006,758.6947Z"></path> <path class="cls-2" d="M562.60359,927.36666l.36766.3119C565.71117,929.88765,564.0145,928.48445,562.60359,927.36666Z"></path> <path class="cls-2" d="M458.69306,806.578c.07912.16836.173.36826.25855.55035l.66752,1.1462Z"></path> <path class="cls-2" d="M440.87961,739.346c.09152.85743.18425,1.63658.28541,2.25532-.06009-.70256-.1303-1.52506-.21954-2.57084C440.92778,739.28043,440.9055,739.3433,440.87961,739.346Z"></path> <path class="cls-2" d="M512.72278,880.69771a6.88581,6.88581,0,0,0-1.45486-1.10527C512.32694,880.66664,513.04166,881.31645,512.72278,880.69771Z"></path> </g> </g> </svg> 